# AST/ASF file generated using VICON BodyLanguage
# -----------------------------------------------
:version 1.10
:name VICON
:units
  mass 1.0
  length 0.45
  angle deg
:documentation
   .ast/.asf automatically generated from VICON data using
   VICON BodyBuilder and BodyLanguage model FoxedUp or BRILLIANT.MOD
:root
   order TX TY TZ RX RY RZ
   axis XYZ
   position 0 0 0  
   orientation 0 0 0 
:bonedata
  begin
     id 1 
     name lhipjoint
     direction 0.584852 -0.759097 0.285867 
     length 2.43633 
     axis 0 0 0  XYZ
  end
  begin
     id 2 
     name lfemur
     direction 0.34202 -0.939693 0  
     length 7.14704  
     axis 0 0 20  XYZ
    dof rx ry rz
    limits (-160.0 20.0)
           (-70.0 70.0)
           (-60.0 70.0)
  end
  begin
     id 3 
     name ltibia
     direction 0.342022 -0.939692 0   
     length 7.68483   
     axis 0 0 20   XYZ
    dof rx
    limits (-10.0 170.0)
  end
  begin
     id 4 
     name lfoot
     direction 0.0999605 -0.274639 0.956337   
     length 2.40452   
     axis -90 7.62852e-016 20   XYZ
    dof rx rz
    limits (-45.0 90.0)
           (-70.0 20.0)
  end
  begin
     id 5 
     name ltoes
     direction 1.53468e-011 -4.21881e-011 1   
     length 1.19837   
     axis -90 7.62852e-016 20   XYZ
    dof rx
    limits (-90.0 20.0)
  end
  begin
     id 6 
     name rhipjoint
     direction -0.569886 -0.769002 0.289597   
     length 2.40495  
     axis 0 0 0  XYZ 
  end
  begin
     id 7 
     name rfemur
     direction -0.34202 -0.939693 0   
     length 7.45086   
     axis 0 0 -20   XYZ
    dof rx ry rz
    limits (-160.0 20.0)
           (-70.0 70.0)
           (-70.0 60.0)
  end
  begin
     id 8 
     name rtibia
     direction -0.34202 -0.939693 0   
     length 7.76831   
     axis 0 0 -20   XYZ
    dof rx
    limits (-10.0 170.0)
 end
 begin
     id 9 
     name rfoot
     direction -0.0798572 -0.219406 0.97236   
     length 2.35911  
     axis -90 -7.62852e-016 -20   XYZ
    dof rx rz
    limits (-45.0 90.0)
           (-20.0 70.0)
  end
  begin
     id 10 
     name rtoes
     direction -1.53469e-011 -4.21728e-011 1   
     length 1.18261   
     axis -90 -7.62852e-016 -20   XYZ
    dof rx
    limits (-90.0 20.0)
  end
  begin
     id 11 
     name lowerback
     direction 0.0242088 0.999437 0.0232389   
     length 2.1561   
     axis 0 0 0   XYZ
    dof rx ry rz
    limits (-20.0 45.0)
           (-30.0 30.0)
           (-30.0 30.0)
  end
  begin
     id 12 
     name upperback
     direction -0.0356893 0.999013 -0.0264323   
     length 2.14431   
     axis 0 0 0   XYZ
    dof rx ry rz
    limits (-20.0 45.0)
           (-30.0 30.0)
           (-30.0 30.0)
  end
  begin
     id 13 
     name thorax
     direction -0.0472163 0.998194 -0.0371284   
     length 2.16169   
     axis 0 0 0   XYZ
    dof rx ry rz
    limits (-20.0 45.0)
           (-30.0 30.0)
           (-30.0 30.0)
  end
  begin
     id 14 
     name lowerneck
     direction 0.00863244 0.999921 0.00911972   
     length 1.58651   
     axis 0 0 0   XYZ
    dof rx ry rz
    limits (-20.0 45.0)
           (-30.0 30.0)
           (-30.0 30.0)
  end
  begin
     id 15 
     name upperneck
     direction 0.149523 0.979068 -0.138086   
     length 1.57486   
     axis 0 0 0   XYZ
    dof rx ry rz
    limits (-20.0 45.0)
           (-30.0 30.0)
           (-30.0 30.0)
  end
  begin
     id 16
     name head
     direction 0.0445219 0.997708 -0.0509576  
     length 1.6019  
     axis 0 0 0   XYZ
    dof rx ry rz
    limits (-20.0 45.0)
           (-30.0 30.0)
           (-30.0 30.0)
  end
  begin
     id 17 
     name lclavicle
     direction 0.911271 0.381667 -0.154644  
     length 3.80848  
     axis 0 0 0   XYZ
    dof ry rz
    limits (-20.0 10.0)
           (0.0 20.0)
  end
  begin
     id 18 
     name lhumerus
     direction 1 -4.49003e-011 2.1308e-027   
     length 5.19069   
     axis 180 -30 -90   XYZ
    dof rx ry rz
    limits (-60.0 90.0)
           (-90.0 90.0)
           (-90.0 90.0)
  end
  begin
     id 19
     name lradius
     direction 1 -4.48914e-011 4.01554e-027   
     length 3.30016   
     axis 180 -30 -90   XYZ
    dof rx
    limits (-10.0 170.0)
  end
  begin
     id 20
     name lwrist
     direction 1 -4.49003e-011 1.1934e-026   
     length 1.65008   
     axis -8.46377e-015 90 90   XYZ
    dof ry
    limits (-180.0 0.0)
 end
  begin
     id 21 
     name lhand
     direction 1 -4.49034e-011 2.38659e-026   
     length 0.707698   
     axis -1.52313e-014 90 90   XYZ
    dof rx rz
    limits (-90.0 90.0)
           (-45.0 45.0)
  end
  begin
     id 22 
     name lfingers
     direction 1 -4.48691e-011 4.77775e-026   
     length 0.570564   
     axis -3.04623e-014 90 90   XYZ
    dof rx
    limits (0.0 90.0)
  end
  begin
     id 23
     name lthumb
     direction 0.707107 -6.34832e-011 0.707107   
     length 0.819219   
     axis -90 45 -1.62303e-014   XYZ
    dof rx rz
    limits (-45.0 45.0)
           (-45.0 45.0)
  end
  begin
     id 24 
     name rclavicle
     direction -0.815579 0.573708 -0.0754329   
     length 3.54371  
     axis 0 0 0   XYZ 
    dof ry rz
    limits (-10.0 20.0)
           (-20.0 0.0)
  end
  begin
     id 25 
     name rhumerus
     direction -1 -4.48956e-011 3.05351e-028  
     length 5.23924   
     axis 180 30 90   XYZ
    dof rx ry rz
    limits (-90.0 60.0)
           (-90.0 90.0)
           (-90.0 90.0)
  end
  begin
     id 26 
     name rradius
     direction -1 -4.49013e-011 3.53849e-027   
     length 3.32953   
     axis 180 30 90   XYZ
    dof rx
    limits (-10.0 170.0)
  end
  begin
     id 27 
     name rwrist
     direction -1 -4.48901e-011 1.19374e-026   
     length 1.66477   
     axis -8.46377e-015 -90 -90   XYZ
    dof ry
    limits (-180.0 0.0)
  end
  begin
     id 28
     name rhand
     direction -1 -4.48877e-011 2.38764e-026   
     length 0.607414   
     axis -1.52313e-014 -90 -90   XYZ
    dof rx rz
    limits (-90.0 90.0)
           (-45.0 45.0)
  end
  begin
     id 29
     name rfingers
     direction -1 -4.48882e-011 4.77521e-026   
     length 0.489712   
     axis -3.04623e-014 -90 -90   XYZ
    dof rx
    limits (0.0 90.0)
  end
  begin
     id 30
     name rthumb
     direction -0.707107 -6.34974e-011 0.707107   
     length 0.703132   
     axis -90 -45 1.62303e-014   XYZ
    dof rx rz
    limits (-45.0 45.0)
           (-45.0 45.0)
  end
:hierarchy
  begin
    root lhipjoint rhipjoint lowerback
    lhipjoint lfemur
    lfemur ltibia
    ltibia lfoot
    lfoot ltoes
    rhipjoint rfemur
    rfemur rtibia
    rtibia rfoot
    rfoot rtoes
    lowerback upperback
    upperback thorax
    thorax lowerneck lclavicle rclavicle
    lowerneck upperneck
    upperneck head
    lclavicle lhumerus
    lhumerus lradius
    lradius lwrist
    lwrist lhand lthumb
    lhand lfingers
    rclavicle rhumerus
    rhumerus rradius
    rradius rwrist
    rwrist rhand rthumb
    rhand rfingers
  end

#!OML:ASF E:\VariousWalksJay\Project 1\Capture day 1\Session 1\Actor2.ASF
:FULLY-SPECIFIED
:DEGREES
179
root -5.89339 17.1251 -28.0523 -1.01008 -7.31381 2.78308
lowerback 1.25578 -1.41672 4.59969
upperback 2.30812 -1.88699 0.225635
thorax 1.52926 -0.871994 -2.34361
lowerneck -11.1546 -1.28313 -2.85443
upperneck 10.4635 -1.87108 4.78901
head 5.04485 -0.711812 1.81515
rclavicle 1.51076e-014 1.98785e-014
rhumerus -28.013 10.2185 -77.1112
rradius 23.0366
rwrist 5.94876
rhand 12.1388 -8.03764
rfingers 7.12502
rthumb 37.152 -34.0627
lclavicle 1.51076e-014 1.98785e-014
lhumerus -19.2801 -25.7948 80.7171
lradius 42.6547
lwrist 15.7261
lhand 8.84355 -3.49505
lfingers 7.12502
lthumb 34.0287 23.2823
rfemur -16.1073 -8.68036 13.176
rtibia 48.9357
rfoot -33.0603 -14.326
rtoes -20.2064
lfemur -9.76719 16.4861 -18.4698
ltibia 39.6836
lfoot -26.6458 5.98475
ltoes -11.5018
180
root -5.88262 17.0828 -28.0439 -1.23031 -7.77801 2.83342
lowerback 1.64755 -1.41587 5.00568
upperback 2.33951 -1.86649 0.570668
thorax 1.34343 -0.862243 -2.20573
lowerneck -11.2206 -0.957198 -2.8073
upperneck 10.5215 -1.37533 4.28866
head 5.04987 -0.499527 1.68914
rclavicle 2.3556e-014 3.10104e-014
rhumerus -27.2124 11.3702 -76.3495
rradius 22.3958
rwrist 6.37222
rhand 13.1176 -8.29767
rfingers 7.12502
rthumb 38.0769 -34.0759
lclavicle 2.3556e-014 3.10104e-014
lhumerus -18.5125 -27.0506 79.8618
lradius 44.2678
lwrist 16.1745
lhand 9.61157 -3.11025
lfingers 7.12502
lthumb 34.7578 23.502
rfemur -16.1747 -8.62401 12.9921
rtibia 49.4226
rfoot -33.2857 -14.0425
rtoes -20.7797
lfemur -10.2372 17.5238 -18.3227
ltibia 41.1835
lfoot -26.6994 5.41517
ltoes -12.2408
181
root -5.87395 17.0534 -28.0411 -1.29436 -8.08353 2.86536
lowerback 1.96016 -1.37669 5.45695
upperback 2.44964 -1.79772 0.849246
thorax 1.28403 -0.823037 -2.16536
lowerneck -11.6645 -0.742545 -2.35184
upperneck 10.5168 -1.06051 3.56688
head 5.10479 -0.371111 1.4131
rclavicle 2.67365e-014 -2.46493e-014
rhumerus -26.0955 11.9337 -75.4679
rradius 21.7021
rwrist 6.92915
rhand 13.9136 -8.05939
rfingers 7.12502
rthumb 38.8281 -33.6285
lclavicle 2.67365e-014 -2.46493e-014
lhumerus -17.217 -28.6511 78.5738
lradius 45.8504
lwrist 16.7788
lhand 9.80363 -2.97232
lfingers 7.12502
lthumb 34.9401 23.5977
rfemur -16.3713 -8.67314 12.8646
rtibia 49.8953
rfoot -33.5357 -13.7419
rtoes -21.0934
lfemur -11.0127 18.564 -18.1943
ltibia 42.8658
lfoot -26.592 4.87184
ltoes -13.5723
182
root -5.86529 17.0212 -28.0453 -1.19111 -8.29513 2.81853
lowerback 2.19781 -1.39386 5.96131
upperback 2.46554 -1.80208 1.18829
thorax 1.16474 -0.823357 -2.09175
lowerneck -11.9207 -0.45386 -1.97062
upperneck 10.4854 -0.643629 2.88457
head 5.12143 -0.196402 1.17016
rclavicle -8.94531e-016 -6.36111e-015
rhumerus -24.9291 12.5625 -74.5177
rradius 20.9944
rwrist 7.44959
rhand 14.7061 -8.24568
rfingers 7.12502
rthumb 39.5749 -33.5986
lclavicle -8.94531e-016 -6.36111e-015
lhumerus -15.9899 -30.1473 77.1581
lradius 47.3939
lwrist 17.7685
lhand 9.49805 -3.08469
lfingers 7.12502
lthumb 34.6501 23.5524
rfemur -16.7838 -8.77672 12.8727
rtibia 50.4111
rfoot -33.7255 -13.6211
rtoes -21.6532
lfemur -12.1166 19.5007 -18.0219
ltibia 44.779
lfoot -26.2145 4.10048
ltoes -14.685
183
root -5.85266 16.9897 -28.045 -1.21758 -8.63173 2.8031
lowerback 2.63843 -1.39271 6.43226
upperback 2.47941 -1.76229 1.55098
thorax 0.935071 -0.805953 -1.97037
lowerneck -12.1347 -0.131944 -1.63537
upperneck 10.4794 -0.179586 2.22356
head 5.14259 -0.000149281 0.945718
rclavicle -2.8128e-014 9.54166e-015
rhumerus -23.7831 13.2898 -73.4923
rradius 20.3778
rwrist 7.89072
rhand 15.4339 -8.45858
rfingers 7.12502
rthumb 40.26 -33.6057
lclavicle -2.8128e-014 9.54166e-015
lhumerus -14.7039 -31.4164 75.5707
lradius 48.9705
lwrist 18.2934
lhand 9.41 -2.9726
lfingers 7.12502
lthumb 34.5665 23.6836
rfemur -17.0707 -8.8808 12.7925
rtibia 50.9155
rfoot -33.8886 -13.3852
rtoes -22.1719
lfemur -13.1603 20.503 -17.8369
ltibia 46.8943
lfoot -25.7785 3.39158
ltoes -16.097
184
root -5.83906 16.9568 -28.0463 -1.16302 -8.90671 2.83849
lowerback 2.73109 -1.43892 6.89968
upperback 2.62057 -1.81844 1.90187
thorax 1.02444 -0.825098 -1.86692
lowerneck -12.132 0.173536 -1.32241
upperneck 10.1799 0.271116 1.51812
head 5.04131 0.184071 0.708894
rclavicle 1.78906e-015 2.06736e-014
rhumerus -22.3009 14.1126 -72.4284
rradius 19.7675
rwrist 8.17177
rhand 15.8998 -8.55986
rfingers 7.12502
rthumb 40.6979 -33.5715
lclavicle 1.78906e-015 2.06736e-014
lhumerus -13.1587 -32.4665 73.6609
lradius 50.4884
lwrist 19.0109
lhand 9.03371 -2.8712
lfingers 7.12502
lthumb 34.2093 23.8659
rfemur -17.4757 -9.01802 12.6662
rtibia 51.4645
rfoot -33.9877 -13.18
rtoes -22.9662
lfemur -14.4452 21.4438 -17.7424
ltibia 49.2439
lfoot -25.0791 2.65854
ltoes -17.7376
185
root -5.82551 16.9236 -28.0527 -1.13833 -9.17351 2.79793
lowerback 3.21588 -1.46043 7.37627
upperback 2.64667 -1.796 2.3001
thorax 0.783086 -0.817559 -1.70924
lowerneck -12.2626 0.454371 -0.967326
upperneck 10.0428 0.681907 0.783546
head 5.01827 0.349338 0.45425
rclavicle -1.0138e-014 2.54444e-014
rhumerus -20.9129 14.7574 -71.2632
rradius 19.1518
rwrist 8.54399
rhand 16.1538 -8.51933
rfingers 7.12502
rthumb 40.9366 -33.4558
lclavicle -1.0138e-014 2.54444e-014
lhumerus -11.6124 -33.5439 71.6714
lradius 51.9192
lwrist 19.7863
lhand 8.73746 -2.88383
lfingers 7.12502
lthumb 33.9279 23.9159
rfemur -17.8722 -9.12795 12.6388
rtibia 52.0313
rfoot -34.0835 -12.9872
rtoes -23.427
lfemur -15.8541 22.3184 -17.5204
ltibia 51.775
lfoot -24.1137 1.75354
ltoes -19.1181
186
root -5.81091 16.8882 -28.0614 -1.13377 -9.37587 2.8815
lowerback 3.65405 -1.58427 7.74691
upperback 2.6772 -1.91041 2.67422
thorax 0.56323 -0.879244 -1.5132
lowerneck -12.1673 0.776033 -0.789145
upperneck 9.76935 1.15685 0.188258
head 4.91795 0.549219 0.275455
rclavicle -1.88845e-014 1.43125e-014
rhumerus -19.5157 16.0359 -70.2083
rradius 18.7942
rwrist 8.53098
rhand 16.2714 -8.73204
rfingers 7.12502
rthumb 41.047 -33.6335
lclavicle -1.88845e-014 1.43125e-014
lhumerus -10.1077 -34.3172 69.473
lradius 53.2562
lwrist 20.5519
lhand 8.08203 -2.92769
lfingers 7.12502
lthumb 33.305 24.0077
rfemur -18.2871 -9.27725 12.4663
rtibia 52.638
rfoot -34.1646 -12.7638
rtoes -23.8061
lfemur -17.4005 23.0635 -17.4399
ltibia 54.4589
lfoot -22.8818 0.926599
ltoes -20.9129
187
root -5.7963 16.8529 -28.0685 -1.16109 -9.58614 2.98764
lowerback 4.10047 -1.58894 8.2157
upperback 2.84344 -1.86712 2.90663
thorax 0.486276 -0.852713 -1.52392
lowerneck -12.5094 0.975423 -0.412071
upperneck 9.56746 1.42664 -0.34953
head 4.91726 0.659871 0.069108
rclavicle 1.0138e-014 -2.8625e-014
rhumerus -17.8772 16.4483 -69.0901
rradius 18.276
rwrist 8.86875
rhand 16.1782 -8.7065
rfingers 7.12502
rthumb 40.9595 -33.6357
lclavicle 1.0138e-014 -2.8625e-014
lhumerus -7.94722 -35.2251 66.6878
lradius 54.4886
lwrist 21.1739
lhand 8.26233 -2.85495
lfingers 7.12502
lthumb 33.4764 24.0435
rfemur -18.6745 -9.4091 12.2608
rtibia 53.2471
rfoot -34.2182 -12.5437
rtoes -24.2014
lfemur -19.023 23.6917 -17.3534
ltibia 57.2085
lfoot -21.3641 0.0188556
ltoes -21.9015
188
root -5.78295 16.8165 -28.0786 -1.14796 -9.70977 3.06239
lowerback 4.56819 -1.73447 8.50581
upperback 2.91581 -2.00303 3.31395
thorax 0.295589 -0.925231 -1.24428
lowerneck -12.4284 1.23438 -0.276493
upperneck 9.14664 1.81654 -0.930518
head 4.78018 0.819856 -0.105158
rclavicle -4.37326e-015 -6.36111e-015
rhumerus -16.1967 17.6399 -67.8881
rradius 17.9145
rwrist 8.93653
rhand 16.0481 -8.98389
rfingers 7.12502
rthumb 40.8373 -33.9518
lclavicle -4.37326e-015 -6.36111e-015
lhumerus -6.16059 -35.6487 64.0705
lradius 55.5929
lwrist 21.7236
lhand 8.20153 -2.67492
lfingers 7.12502
lthumb 33.4186 24.236
rfemur -19.0863 -9.55454 12.1142
rtibia 53.8668
rfoot -34.3038 -12.385
rtoes -24.4396
lfemur -20.7947 24.2367 -17.2199
ltibia 60.0173
lfoot -19.4697 -0.944452
ltoes -22.7292
189
root -5.76766 16.7814 -28.0817 -1.33081 -9.87577 3.31344
lowerback 4.98211 -1.67922 8.88577
upperback 3.28036 -1.89571 3.41747
thorax 0.448427 -0.854513 -1.34507
lowerneck -13.0069 1.33085 0.180788
upperneck 8.92682 1.91623 -1.36834
head 4.81625 0.854938 -0.304294
rclavicle -1.23246e-014 3.02153e-014
rhumerus -14.3189 17.6351 -66.6999
rradius 17.4978
rwrist 9.45982
rhand 15.9871 -9.22218
rfingers 7.12502
rthumb 40.7799 -34.2081
lclavicle -1.23246e-014 3.02153e-014
lhumerus -3.33431 -36.4143 60.5795
lradius 56.5825
lwrist 22.4019
lhand 8.01008 -2.78455
lfingers 7.12502
lthumb 33.2366 24.1654
rfemur -19.2905 -9.64108 11.7224
rtibia 54.473
rfoot -34.3681 -12.2608
rtoes -24.8471
lfemur -22.3643 24.7158 -17.2071
ltibia 62.7781
lfoot -17.393 -1.78438
ltoes -23.2909
190
root -5.75273 16.7438 -28.088 -1.37437 -10.0583 3.37013
lowerback 5.59002 -1.85223 9.17522
upperback 3.22929 -2.03191 3.86249
thorax 0.0530513 -0.938012 -1.01638
lowerneck -12.441 1.60363 0.128439
upperneck 8.44165 2.34142 -1.88352
head 4.58275 1.03522 -0.428383
rclavicle -9.14409e-015 1.11319e-014
rhumerus -12.7984 19.1578 -65.4346
rradius 17.3577
rwrist 9.58039
rhand 15.8563 -9.21757
rfingers 7.12502
rthumb 40.6571 -34.242
lclavicle -9.14409e-015 1.11319e-014
lhumerus -1.83423 -36.5906 57.9399
lradius 57.522
lwrist 22.8708
lhand 7.5799 -2.72163
lfingers 7.12502
lthumb 32.8275 24.3148
rfemur -19.6435 -9.68652 11.5853
rtibia 55.0788
rfoot -34.4262 -12.074
rtoes -24.816
lfemur -24.1761 25.1752 -17.0289
ltibia 65.5412
lfoot -14.8986 -2.45145
ltoes -22.743
191
root -5.73999 16.7068 -28.0924 -1.39668 -10.1398 3.46918
lowerback 5.9997 -1.85443 9.57873
upperback 3.47812 -1.98383 4.06263
thorax 0.0870119 -0.904042 -1.02422
lowerneck -12.9022 1.74566 0.523328
upperneck 8.19206 2.5129 -2.36438
head 4.59429 1.10079 -0.625195
rclavicle 5.96354e-015 -2.54444e-014
rhumerus -10.9556 19.4863 -64.1858
rradius 17.2031
rwrist 9.9337
rhand 15.9342 -9.4241
rfingers 7.12502
rthumb 40.7303 -34.4256
lclavicle 5.96354e-015 -2.54444e-014
lhumerus 0.918604 -36.87 54.2888
lradius 58.3822
lwrist 23.6531
lhand 8.22517 -2.31133
lfingers 7.12502
lthumb 33.4411 24.5948
rfemur -19.9812 -9.81085 11.4102
rtibia 55.6512
rfoot -34.4838 -11.9591
rtoes -24.9408
lfemur -26.0355 25.5724 -16.8999
ltibia 68.2127
lfoot -12.4654 -3.01467
ltoes -20.8461
192
root -5.7257 16.6698 -28.0948 -1.4399 -10.267 3.59953
lowerback 6.40939 -2.03458 9.8127
upperback 3.56088 -2.16125 4.40828
thorax -0.0621235 -0.996387 -0.768814
lowerneck -12.3944 2.017 0.463916
upperneck 7.576 2.91289 -2.74834
head 4.33269 1.28222 -0.710719
rclavicle 6.63941e-014 -9.54166e-015
rhumerus -9.20306 20.9846 -62.8929
rradius 17.3032
rwrist 9.87528
rhand 16.0573 -9.5606
rfingers 7.12502
rthumb 40.8459 -34.5258
lclavicle 6.63941e-014 -9.54166e-015
lhumerus 2.73451 -36.4548 51.1941
lradius 59.1087
lwrist 24.6114
lhand 9.06758 -2.0606
lfingers 7.12502
lthumb 34.2414 24.6692
rfemur -20.3195 -9.92146 11.1876
rtibia 56.261
rfoot -34.5443 -11.8096
rtoes -25.2046
lfemur -27.8732 26.0852 -16.8212
ltibia 70.8455
lfoot -10.5404 -3.27826
ltoes -19.8553
